# xmcd
#
# Track frame offsets:
#	150
#	16787
#	31445
#	51600
#	66797
#	84440
#	96810
#	108805
#	123617
#	135097
#	153085
#	171600
#	185430
#	200480
#
# Disc length: 2866 seconds
#
# Revision: 0
# Processed by: cddbd v1.5.2PL0 Copyright (c) Steve Scherf et al.
# Submitted via: audiograbber 1.83.01
#
DISCID=b60b300e
DTITLE=Various Artist - Our Land Australia
DYEAR=1900
DGENRE=Country
TTITLE0=Ted Egan - This Land Australia
TTITLE1=Norma Murphy - Sydney Or The Bush
TTITLE2=Flying Emus - It's A Sunburnt Country
TTITLE3=James Blundell - Cloncurry Cattle Song
TTITLE4=Jean Stafford - Fire At Shepherds Flat
TTITLE5=Three Chord Wonders - Losin' My Blues Tonight
TTITLE6=Lawrie Minson - Morning Mail
TTITLE7=John Williamson - Sail The Nullarbor
TTITLE8=Anne Kirkpatrick - Lights In The Mirror
TTITLE9=Warumpi Band - Fitzroy Crossing
TTITLE10=Neil Murray - Woman's Love
TTITLE11=Jim Haynes - Mow Ya Lawn
TTITLE12=Trevor Knight and Smoky Dawson - The Bombs Fell Down On Darwin
TTITLE13=Slim Dusty - Travellers' Prayer
EXTD=
EXTT0=
EXTT1=
EXTT2=
EXTT3=
EXTT4=
EXTT5=
EXTT6=
EXTT7=
EXTT8=
EXTT9=
EXTT10=
EXTT11=
EXTT12=
EXTT13=
PLAYORDER=
